<svg id="Layer_1" data-name="Layer 1" xmlns="http://www.w3.org/2000/svg" viewBox="0 0 98.88 43.79"><defs><style>.cls-1{fill:#9a999e;}.cls-2{fill:#bf0811;}.cls-3{fill:#fff;}.cls-4{fill:#211915;}</style></defs><rect class="cls-1" y="26.62" width="97.36" height="7.8"/><path class="cls-1" d="M192.2,598.2h1.12a4.86,4.86,0,0,0,2.86-.67,2.44,2.44,0,0,0,.9-2.09,2.94,2.94,0,0,0-.84-2.38,4.43,4.43,0,0,0-2.83-.71H192.2Zm-5.68,11.72V587.69h6.33A26.35,26.35,0,0,1,198,588a6.69,6.69,0,0,1,2.53,1.15,6,6,0,0,1,1.85,2.32,7.41,7.41,0,0,1,.64,3.12,6.6,6.6,0,0,1-1.26,4.2,6.17,6.17,0,0,1-3.7,2.15l6.05,9H197.3l-5.1-8.7v8.7Z" transform="translate(-180.58 -586.1)"/><path class="cls-1" d="M217,605.38a5.34,5.34,0,0,0,4.17-1.85,7.41,7.41,0,0,0,0-9.34,5.57,5.57,0,0,0-8.31,0,7.52,7.52,0,0,0,0,9.36,5.33,5.33,0,0,0,4.19,1.84m11.87-6.53a11.31,11.31,0,0,1-3.45,8.25,12.23,12.23,0,0,1-3.89,2.53,12.13,12.13,0,0,1-9.1,0,11.69,11.69,0,0,1-3.84-2.53,11.25,11.25,0,0,1-3.49-8.25,11.2,11.2,0,0,1,3.49-8.25,11.68,11.68,0,0,1,3.84-2.53,12.17,12.17,0,0,1,9.12,0,11.8,11.8,0,0,1,3.87,2.53,11.37,11.37,0,0,1,3.45,8.25" transform="translate(-180.58 -586.1)"/><path class="cls-1" d="M247.66,588.55v6.62a9.08,9.08,0,0,0-2.48-2,5.66,5.66,0,0,0-2.65-.65,5.45,5.45,0,0,0-4.23,1.78,6.67,6.67,0,0,0-1.62,4.65,6.24,6.24,0,0,0,1.65,4.44,5.49,5.49,0,0,0,4.2,1.76,5.66,5.66,0,0,0,2.65-.65,9,9,0,0,0,2.48-2v6.64a14.69,14.69,0,0,1-2.87,1,12,12,0,0,1-2.88.35,12.36,12.36,0,0,1-3.36-.43,9.58,9.58,0,0,1-2.84-1.31,11.2,11.2,0,0,1-3.79-4.2,13.26,13.26,0,0,1-.48-10.35,11.28,11.28,0,0,1,2.5-3.79A10.42,10.42,0,0,1,237.5,588a11.64,11.64,0,0,1,4.41-.8,12,12,0,0,1,2.88.35,14.82,14.82,0,0,1,2.87,1" transform="translate(-180.58 -586.1)"/><path class="cls-1" d="M249.06,609.92l7.67-22.23h7.59L272,609.92h-6l-1.12-4h-8.61l-1.15,4Zm8.49-8.31h6l-2.27-7.33c-.07-.22-.17-.58-.29-1.08s-.28-1.13-.47-1.91c-.13.55-.26,1.07-.39,1.56s-.26,1-.39,1.43Z" transform="translate(-180.58 -586.1)"/><rect class="cls-2" x="0.94" y="25.55" width="97.36" height="7.8"/><path class="cls-2" d="M193.14,597.14h1.13a4.85,4.85,0,0,0,2.86-.67,2.43,2.43,0,0,0,.9-2.09,2.94,2.94,0,0,0-.85-2.38,4.42,4.42,0,0,0-2.83-.71h-1.21Zm-5.68,11.72V586.63h6.33A26.34,26.34,0,0,1,199,587a6.69,6.69,0,0,1,2.53,1.15,6,6,0,0,1,1.84,2.32,7.4,7.4,0,0,1,.64,3.12,6.6,6.6,0,0,1-1.26,4.2,6.18,6.18,0,0,1-3.7,2.15l6.05,9h-6.85l-5.1-8.7v8.7Z" transform="translate(-180.58 -586.1)"/><path class="cls-2" d="M217.9,604.32a5.34,5.34,0,0,0,4.17-1.85,7.41,7.41,0,0,0,0-9.35,5.57,5.57,0,0,0-8.31,0,7.51,7.51,0,0,0,0,9.36,5.33,5.33,0,0,0,4.19,1.84m11.87-6.53a11.49,11.49,0,0,1-.88,4.49,11.36,11.36,0,0,1-2.57,3.75,12.23,12.23,0,0,1-3.89,2.53,12.12,12.12,0,0,1-9.1,0A11.67,11.67,0,0,1,209.5,606a11.31,11.31,0,0,1-2.61-3.77,11.39,11.39,0,0,1,2.61-12.72,11.67,11.67,0,0,1,3.84-2.53,12.17,12.17,0,0,1,9.12,0,11.8,11.8,0,0,1,3.87,2.53,11.37,11.37,0,0,1,3.45,8.25" transform="translate(-180.58 -586.1)"/><path class="cls-2" d="M248.6,587.49v6.62a9.07,9.07,0,0,0-2.48-2,5.65,5.65,0,0,0-2.65-.65,5.45,5.45,0,0,0-4.23,1.78,6.67,6.67,0,0,0-1.62,4.65,6.24,6.24,0,0,0,1.65,4.44,5.49,5.49,0,0,0,4.2,1.76,5.64,5.64,0,0,0,2.65-.65,9,9,0,0,0,2.48-2V608a14.89,14.89,0,0,1-2.87,1,12.06,12.06,0,0,1-2.88.35,12.34,12.34,0,0,1-3.36-.43,9.56,9.56,0,0,1-2.84-1.31,11.19,11.19,0,0,1-3.79-4.2,12.31,12.31,0,0,1-1.31-5.71,12.44,12.44,0,0,1,.83-4.64,11.27,11.27,0,0,1,2.5-3.79,10.4,10.4,0,0,1,3.56-2.43,11.64,11.64,0,0,1,4.41-.8,12,12,0,0,1,2.88.35,14.76,14.76,0,0,1,2.87,1" transform="translate(-180.58 -586.1)"/><path class="cls-2" d="M250,608.86l7.67-22.23h7.59l7.68,22.23h-6l-1.12-4h-8.61l-1.16,4Zm8.49-8.31h6l-2.27-7.33c-.07-.22-.17-.58-.28-1.08s-.28-1.13-.47-1.91c-.13.55-.26,1.07-.39,1.57s-.25,1-.38,1.42Z" transform="translate(-180.58 -586.1)"/><path class="cls-3" d="M275.25,614.47a2.44,2.44,0,0,0,0-.28,1.33,1.33,0,0,0-.09-.31,1.35,1.35,0,0,0-.2-.33,1.37,1.37,0,0,0-.36-.3,1.66,1.66,0,0,0-.44-.18,1.92,1.92,0,0,0-.47-.06,2,2,0,0,0-.48.06,1.91,1.91,0,0,0-.45.18,1.53,1.53,0,0,0-.37.28,1.25,1.25,0,0,0-.26.39,1.22,1.22,0,0,0-.1.49,1.25,1.25,0,0,0,.09.47,1.26,1.26,0,0,0,.22.35,1.61,1.61,0,0,0,.29.25,2.31,2.31,0,0,0,.3.17l.25.11.45.19a1.84,1.84,0,0,1,.28.15l.15.15,0,.2-.05.21-.16.17a.44.44,0,0,1-.25.07l-.14,0-.16-.09-.13-.2a.9.9,0,0,1-.05-.33h-1.2v.15a1.71,1.71,0,0,0,0,.39,1.51,1.51,0,0,0,.16.4,1.31,1.31,0,0,0,.31.35,1.47,1.47,0,0,0,.49.26,2.57,2.57,0,0,0,1.35,0,1.48,1.48,0,0,0,.47-.23,1.21,1.21,0,0,0,.31-.33,1.35,1.35,0,0,0,.17-.39,1.61,1.61,0,0,0,.05-.41,1.43,1.43,0,0,0,0-.39,1,1,0,0,0-.17-.35,1.45,1.45,0,0,0-.34-.32,3.27,3.27,0,0,0-.55-.3l-.51-.24a2,2,0,0,1-.3-.16l-.14-.15,0-.18.06-.2.15-.13.2,0a.45.45,0,0,1,.22,0l.13.12.06.15,0,.14Zm-6.43.09h0l.49,1.61h-1Zm.82,2.57.23.68h1.31l-1.88-4.72h-.95l-1.9,4.72h1.3l.25-.68Zm-8.2.68h1.15l0-2.87h0l1.8,2.87h1V613.1h-1.15l.05,3h0l-1.82-3h-1ZM258,614.56h0l.48,1.61h-1Zm.82,2.57.23.68h1.31l-1.88-4.72h-1l-1.89,4.72H257l.25-.68Zm-5-1.08-.08.15-.14.21-.22.21a1.19,1.19,0,0,1-.3.17,1.14,1.14,0,0,1-.4.07,1.2,1.2,0,0,1-.53-.12,1.23,1.23,0,0,1-.4-.32,1.45,1.45,0,0,1-.25-.45,1.58,1.58,0,0,1-.09-.52,1.51,1.51,0,0,1,.21-.77,1.29,1.29,0,0,1,.26-.31,1.13,1.13,0,0,1,.35-.21,1.29,1.29,0,0,1,.44-.08,1.23,1.23,0,0,1,.43.08,1.19,1.19,0,0,1,.33.2,1.36,1.36,0,0,1,.23.27,1.41,1.41,0,0,1,.14.28h1.26a1.81,1.81,0,0,0-.12-.4,2.3,2.3,0,0,0-.23-.42,2.51,2.51,0,0,0-.34-.4,2.39,2.39,0,0,0-.46-.34,2.43,2.43,0,0,0-.57-.24,2.69,2.69,0,0,0-1.53.05,2.38,2.38,0,0,0-.69.37,2.44,2.44,0,0,0-.51.55,2.51,2.51,0,0,0-.32.66,2.45,2.45,0,0,0,.34,2.13,2.43,2.43,0,0,0,1.21.91,2.57,2.57,0,0,0,.83.13,2.55,2.55,0,0,0,.82-.13,2.47,2.47,0,0,0,.7-.38,2.39,2.39,0,0,0,.54-.59,2.51,2.51,0,0,0,.33-.76Zm-6,1.77h1.21V613.1h-1.21Zm-3.56-3.66h.44a1.12,1.12,0,0,1,.41.07.59.59,0,0,1,.27.21.63.63,0,0,1,.1.36l0,.2-.11.22a.58.58,0,0,1-.24.18,1.12,1.12,0,0,1-.42.07h-.43Zm-1.15,3.66h1.15v-1.52h0l1.09,1.52h1.38l-1.28-1.61A1.42,1.42,0,0,0,246,616a1.24,1.24,0,0,0,.34-.27,1.33,1.33,0,0,0,.22-.34,1.68,1.68,0,0,0,.12-.37,1.75,1.75,0,0,0,0-.35,1.83,1.83,0,0,0-.06-.48,1.63,1.63,0,0,0-.19-.44,1.43,1.43,0,0,0-.32-.36l-.24-.15a1.24,1.24,0,0,0-.29-.1,2.53,2.53,0,0,0-.39-.06l-.53,0h-1.49Zm-3.92,0h2.62v-1.06h-1.47v-.81h1.42v-1.06h-1.42v-.73h1.47V613.1h-2.62Zm-6.38,0H234l0-3.54h0l1,3.55h.8l1-3.55h0l0,3.54h1.11V613.1h-1.56l-.93,3.1h0l-.94-3.1h-1.55Zm-3.39-3.25h0l.48,1.61h-1Zm.82,2.57.23.68h1.31l-1.88-4.72H229l-1.9,4.72h1.3l.25-.68Zm-6.69-2.66a2.68,2.68,0,0,0,0-.28,1.37,1.37,0,0,0-.08-.31,1.29,1.29,0,0,0-.57-.63,1.68,1.68,0,0,0-.44-.18A1.94,1.94,0,0,0,222,613a2,2,0,0,0-.48.06,1.88,1.88,0,0,0-.45.18,1.53,1.53,0,0,0-.38.28,1.27,1.27,0,0,0-.26.39,1.28,1.28,0,0,0,0,1,1.24,1.24,0,0,0,.22.35,1.61,1.61,0,0,0,.29.25,2.32,2.32,0,0,0,.3.17l.25.11.45.19a1.89,1.89,0,0,1,.28.15l.15.15,0,.2-.06.21-.16.17a.44.44,0,0,1-.25.07l-.14,0-.16-.09-.13-.2a.92.92,0,0,1-.06-.33h-1.2v.15a1.71,1.71,0,0,0,0,.39,1.48,1.48,0,0,0,.16.4,1.29,1.29,0,0,0,.31.35,1.46,1.46,0,0,0,.49.26,2.56,2.56,0,0,0,1.35,0,1.48,1.48,0,0,0,.47-.23,1.19,1.19,0,0,0,.31-.33,1.35,1.35,0,0,0,.17-.39,1.61,1.61,0,0,0,.05-.41,1.36,1.36,0,0,0-.05-.39,1,1,0,0,0-.17-.35,1.49,1.49,0,0,0-.34-.32,3.23,3.23,0,0,0-.54-.3l-.51-.24a2.1,2.1,0,0,1-.29-.16l-.14-.15,0-.18.06-.2.15-.13.2,0a.45.45,0,0,1,.22,0l.13.12.06.15,0,.14Zm-6.43.09h0l.49,1.61h-1Zm.82,2.57.23.68h1.31l-1.88-4.72h-1l-1.89,4.72h1.29l.25-.68Zm-6.63-3h.52a1.37,1.37,0,0,1,.45.07.86.86,0,0,1,.29.16l.18.21a1.32,1.32,0,0,1,.14.29,1.73,1.73,0,0,1,.07.3,1.94,1.94,0,0,1,0,.29,2,2,0,0,1-.05.48,1.17,1.17,0,0,1-.19.41.9.9,0,0,1-.35.29,1.33,1.33,0,0,1-.56.11h-.52Zm-1.21,3.66h1.65a3.34,3.34,0,0,0,.94-.12,2.08,2.08,0,0,0,.69-.34,1.84,1.84,0,0,0,.46-.52,2.25,2.25,0,0,0,.26-.65,3.21,3.21,0,0,0,.08-.74,3.12,3.12,0,0,0,0-.51,2.43,2.43,0,0,0-.14-.49,2.15,2.15,0,0,0-.26-.46,2,2,0,0,0-.4-.43,1.86,1.86,0,0,0-.45-.26,2.17,2.17,0,0,0-.45-.13l-.43-.05h-1.93Zm-5.32,0H206l0-2.87h0l1.8,2.87h1V613.1h-1.15l.05,3h0l-1.82-3h-1Zm-3.91,0h2.62v-1.06h-1.47v-.81h1.42v-1.06h-1.42v-.73h1.47V613.1H200.9Zm-2.61,0h1.21V613.1H198.3Zm-5.48-4.72,1.58,4.72h1.24l1.58-4.72H196l-1,3.31h0l-1-3.31Zm-2.28,4.72h1.21V613.1h-1.21Zm-5.48-4.72,1.58,4.72h1.24l1.58-4.72h-1.24l-1,3.31h0l-.95-3.31Z" transform="translate(-180.58 -586.1)"/><path class="cls-2" d="M279.47,629.89H215.9a3.34,3.34,0,0,1-2.46-.88,3.42,3.42,0,0,1-.9-2.48h0v-.89a3,3,0,0,0-.58-2,2.74,2.74,0,0,0-2.22-.8H181.55v-.56h28.19a3.26,3.26,0,0,1,2.65,1,3.57,3.57,0,0,1,.71,2.36v.89h0a2.88,2.88,0,0,0,.73,2.08,2.8,2.8,0,0,0,2.07.72h63.57Z" transform="translate(-180.58 -586.1)"/><path class="cls-4" d="M221.5,623.77h0L220.21,626h1.28Zm0,2.66H219.6V626l1.64-2.66h.83V626h.51v.48h-.51v.93h-.58Z" transform="translate(-180.58 -586.1)"/><path class="cls-4" d="M222.82,626.73l.73-.65c.45-.42,1.17-1.08,1.17-1.74a.7.7,0,0,0-.78-.65,2,2,0,0,0-.93.26l-.06-.5a2.7,2.7,0,0,1,1.07-.24,1.17,1.17,0,0,1,1.32,1.16c0,.68-.73,1.4-1.18,1.85-.23.23-.52.47-.72.65h2v.48h-2.57Z" transform="translate(-180.58 -586.1)"/><path class="cls-4" d="M229.07,623.84l-.81,2h1.62Zm-.28-.55h.61l1.72,4.07h-.64l-.41-1h-2l-.41,1H227Z" transform="translate(-180.58 -586.1)"/><path class="cls-4" d="M231.77,623.94c0-.25.15-.65.55-.65s.65.27.9.27.25-.13.27-.27h.27c0,.25-.15.65-.55.65s-.65-.27-.9-.27-.25.13-.27.27Zm-.33.44H232v.47h0a1.07,1.07,0,0,1,1-.54c.77,0,1.11.48,1.11,1.28v1.76h-.55v-1.54c0-.69-.15-1-.63-1.06s-.9.5-.9,1.22v1.38h-.55Z" transform="translate(-180.58 -586.1)"/><path class="cls-4" d="M236.12,627a1,1,0,0,0,.93-1.11.94.94,0,1,0-1.86,0,1,1,0,0,0,.93,1.11m0-2.67a1.47,1.47,0,0,1,1.51,1.56,1.51,1.51,0,1,1-3,0,1.47,1.47,0,0,1,1.52-1.56" transform="translate(-180.58 -586.1)"/><path class="cls-4" d="M237.94,626.77a1.46,1.46,0,0,0,.68.21c.25,0,.56-.1.56-.43,0-.54-1.29-.5-1.29-1.33,0-.62.46-.92,1-.92a2.29,2.29,0,0,1,.68.12l0,.48a1.59,1.59,0,0,0-.58-.15c-.28,0-.52.12-.52.36,0,.61,1.29.43,1.29,1.38a.94.94,0,0,1-1,.93,1.72,1.72,0,0,1-.82-.16Z" transform="translate(-180.58 -586.1)"/><path class="cls-4" d="M242.85,627c.62,0,.87-.61.87-1.11s-.29-1.12-.88-1.12-.83.56-.82,1.1.23,1.13.82,1.13m.9,0h0a1.19,1.19,0,0,1-1,.49c-.9,0-1.28-.8-1.28-1.61a1.33,1.33,0,0,1,1.28-1.5,1.06,1.06,0,0,1,1,.48h0V623h.55v4.37h-.52Z" transform="translate(-180.58 -586.1)"/><path class="cls-4" d="M246.92,625.58a.75.75,0,0,0-.74-.83.82.82,0,0,0-.8.83Zm.36,1.65a2.27,2.27,0,0,1-.94.19,1.42,1.42,0,0,1-1.54-1.61,1.38,1.38,0,0,1,1.39-1.5c1,0,1.31.72,1.31,1.68h-2.12a1,1,0,0,0,1,1,1.76,1.76,0,0,0,.92-.3Z" transform="translate(-180.58 -586.1)"/><polygon class="cls-4" points="68.95 37.19 71.22 37.19 71.22 37.7 69.53 37.7 69.53 38.89 71.07 38.89 71.07 39.41 69.53 39.41 69.53 40.75 71.22 40.75 71.22 41.26 68.95 41.26 68.95 37.19"/><polygon class="cls-4" points="72.57 39.7 71.6 38.29 72.28 38.29 72.93 39.35 73.58 38.29 74.2 38.29 73.24 39.7 74.29 41.26 73.61 41.26 72.88 40.09 72.14 41.26 71.49 41.26 72.57 39.7"/><path class="cls-4" d="M256.62,624.76c-.6,0-.88.57-.88,1.12s.26,1.11.87,1.11.83-.66.82-1.12-.22-1.1-.82-1.1m-1.43-.37h.52v.42h0a1.19,1.19,0,0,1,1-.49,1.33,1.33,0,0,1,1.28,1.5c0,.82-.38,1.61-1.28,1.61a1.07,1.07,0,0,1-1-.48h0v1.63h-.55Z" transform="translate(-180.58 -586.1)"/><path class="cls-4" d="M260.47,625.58a.75.75,0,0,0-.74-.83.82.82,0,0,0-.8.83Zm.36,1.65a2.27,2.27,0,0,1-.94.19,1.42,1.42,0,0,1-1.54-1.61,1.38,1.38,0,0,1,1.39-1.5c1,0,1.31.72,1.31,1.68h-2.12a1,1,0,0,0,1,1,1.76,1.76,0,0,0,.92-.3Z" transform="translate(-180.58 -586.1)"/><path class="cls-4" d="M261.59,624.38h.51v.46h0a.9.9,0,0,1,.77-.53,1.57,1.57,0,0,1,.36,0v.49a.81.81,0,0,0-.3-.05c-.49,0-.81.47-.81,1.21v1.35h-.55Z" transform="translate(-180.58 -586.1)"/><path class="cls-4" d="M263.72,624.38h.55v3h-.55Zm.58-.67h-.62v-.62h.62Z" transform="translate(-180.58 -586.1)"/><path class="cls-4" d="M267,625.58a.75.75,0,0,0-.74-.83.82.82,0,0,0-.8.83Zm.36,1.65a2.27,2.27,0,0,1-.94.19,1.42,1.42,0,0,1-1.54-1.61,1.38,1.38,0,0,1,1.39-1.5c1,0,1.31.72,1.31,1.68h-2.12a1,1,0,0,0,1,1,1.76,1.76,0,0,0,.92-.3Z" transform="translate(-180.58 -586.1)"/><path class="cls-4" d="M268.1,624.38h.53v.47h0a1.07,1.07,0,0,1,1-.54c.77,0,1.11.48,1.11,1.28v1.76h-.55v-1.54c0-.69-.15-1-.63-1.06s-.9.5-.9,1.22v1.38h-.55Z" transform="translate(-180.58 -586.1)"/><path class="cls-4" d="M273.34,624.88a1.59,1.59,0,0,0-.59-.13,1,1,0,0,0-1,1.11,1,1,0,0,0,1,1.11,1.15,1.15,0,0,0,.59-.17l0,.49a1.67,1.67,0,0,1-.69.12,1.5,1.5,0,0,1-1.51-1.56,1.47,1.47,0,0,1,1.51-1.56,2,2,0,0,1,.67.12Z" transform="translate(-180.58 -586.1)"/><path class="cls-4" d="M273.91,624.38h.55v3h-.55Zm.58-.67h-.62v-.62h.62Z" transform="translate(-180.58 -586.1)"/><path class="cls-4" d="M277,625.94h-.35c-.3,0-1,0-1,.57a.52.52,0,0,0,.55.48.75.75,0,0,0,.83-.78Zm-1.63-1.35a1.89,1.89,0,0,1,1-.28c.85,0,1.19.42,1.19,1.23v1.23a4.58,4.58,0,0,0,0,.58h-.51V627h0a1.1,1.1,0,0,1-.92.45c-.64,0-1.09-.28-1.09-.93s.82-1,1.38-1H277c0-.51-.19-.77-.73-.77a1.4,1.4,0,0,0-.86.3Z" transform="translate(-180.58 -586.1)"/></svg>